HIERARCHY
ROOT Hips
{
	OFFSET 0.000000 85.232368 0.000000
	CHANNELS 6 Xposition Yposition Zposition Xrotation Yrotation Zrotation
	JOINT Pelvis
	{
		OFFSET 0.000000 0.000000 0.000000
		CHANNELS 3 Xrotation Yrotation Zrotation
		JOINT LeftUpLeg
		{
			OFFSET 8.267000 -7.995499 -0.379100
			CHANNELS 3 Xrotation Yrotation Zrotation
			JOINT LeftLeg
			{
				OFFSET 0.054240 -32.386696 0.044000
				CHANNELS 3 Xrotation Yrotation Zrotation
				JOINT LeftFoot
				{
					OFFSET -0.054240 -34.994774 -2.162700
					CHANNELS 3 Xrotation Yrotation Zrotation
					JOINT LeftToeBase
					{
						OFFSET 1.183800 -9.853600 10.917900
						CHANNELS 3 Xrotation Yrotation Zrotation
						End Site
						{
							OFFSET 0.000000 14.754502 0.000000
						}
					}
				}
			}
		}
		JOINT RightUpLeg
		{
			OFFSET -8.267000 -7.995499 -0.379100
			CHANNELS 3 Xrotation Yrotation Zrotation
			JOINT RightLeg
			{
				OFFSET -0.070950 -32.386684 0.038000
				CHANNELS 3 Xrotation Yrotation Zrotation
				JOINT RightFoot
				{
					OFFSET 0.070950 -34.994778 -2.156200
					CHANNELS 3 Xrotation Yrotation Zrotation
					JOINT RightToeBase
					{
						OFFSET -1.183800 -9.853600 10.917900
						CHANNELS 3 Xrotation Yrotation Zrotation
						End Site
						{
							OFFSET 0.000000 14.754502 0.000000
						}
					}
				}
			}
		}
	}
	JOINT Spine
	{
		OFFSET 0.000000 7.868599 1.166200
		CHANNELS 3 Xrotation Yrotation Zrotation
		JOINT Spine1
		{
			OFFSET 0.000000 8.307800 0.248800
			CHANNELS 3 Xrotation Yrotation Zrotation
			JOINT Spine2
			{
				OFFSET 0.000000 7.482399 -0.491200
				CHANNELS 3 Xrotation Yrotation Zrotation
				JOINT Neck
				{
					OFFSET 0.000000 21.684303 -3.123100
					CHANNELS 3 Xrotation Yrotation Zrotation
					JOINT Head
					{
						OFFSET 0.000000 8.913803 1.034000
						CHANNELS 3 Xrotation Yrotation Zrotation
						JOINT Bow_Left
						{
							OFFSET -6.807600 33.579102 20.746500
							CHANNELS 3 Xrotation Yrotation Zrotation
							End Site
							{
								OFFSET 0.000000 36.852737 0.000000
							}
						}
						JOINT Bow_Right
						{
							OFFSET -11.133100 30.306305 19.494801
							CHANNELS 3 Xrotation Yrotation Zrotation
							End Site
							{
								OFFSET 0.000000 36.852737 0.000000
							}
						}
						JOINT HairA
						{
							OFFSET -11.484100 27.488907 17.492701
							CHANNELS 3 Xrotation Yrotation Zrotation
							End Site
							{
								OFFSET 0.000000 36.852753 0.000000
							}
						}
						JOINT HairB
						{
							OFFSET -6.414200 28.763596 21.702101
							CHANNELS 3 Xrotation Yrotation Zrotation
							End Site
							{
								OFFSET 0.000000 36.852753 0.000000
							}
						}
						JOINT HairC
						{
							OFFSET 2.525900 31.951599 20.602400
							CHANNELS 3 Xrotation Yrotation Zrotation
							JOINT HairC1
							{
								OFFSET 1.739400 -3.174103 3.680700
								CHANNELS 3 Xrotation Yrotation Zrotation
								End Site
								{
									OFFSET 0.000000 5.162170 0.000000
								}
							}
						}
						JOINT Ponytail
						{
							OFFSET -0.181100 31.341095 -13.433300
							CHANNELS 3 Xrotation Yrotation Zrotation
							JOINT Ponytail1
							{
								OFFSET -0.652100 2.580795 -7.351699
								CHANNELS 3 Xrotation Yrotation Zrotation
								JOINT Ponytail2
								{
									OFFSET -1.520600 -11.288803 -7.114201
									CHANNELS 3 Xrotation Yrotation Zrotation
									End Site
									{
										OFFSET 0.000000 13.429855 0.000000
									}
								}
							}
						}
					}
				}
				JOINT LeftShoulder
				{
					OFFSET 4.215800 16.554398 -4.064700
					CHANNELS 3 Xrotation Yrotation Zrotation
					JOINT LeftArm
					{
						OFFSET 8.527100 -0.250801 -1.709300
						CHANNELS 3 Xrotation Yrotation Zrotation
						JOINT LeftForeArm
						{
							OFFSET 21.280577 0.000000 0.000000
							CHANNELS 3 Xrotation Yrotation Zrotation
							JOINT LeftHand
							{
								OFFSET 21.084167 0.000000 0.000000
								CHANNELS 3 Xrotation Yrotation Zrotation
								JOINT LeftHandThumb1
								{
									OFFSET 4.156902 -1.974739 2.603903
									CHANNELS 3 Xrotation Yrotation Zrotation
									JOINT LeftHandThumb2
									{
										OFFSET 3.101337 -1.790558 1.790558
										CHANNELS 3 Xrotation Yrotation Zrotation
										JOINT LeftHandThumb3
										{
											OFFSET 3.058640 -1.765907 1.765906
											CHANNELS 3 Xrotation Yrotation Zrotation
											End Site
											{
												OFFSET -0.508484 3.914536 0.099958
											}
										}
									}
								}
								JOINT LeftHandIndex1
								{
									OFFSET 11.891159 -0.685638 3.728940
									CHANNELS 3 Xrotation Yrotation Zrotation
									JOINT LeftHandIndex2
									{
										OFFSET 3.283112 0.000000 0.000000
										CHANNELS 3 Xrotation Yrotation Zrotation
										JOINT LeftHandIndex3
										{
											OFFSET 3.323853 0.000000 0.000000
											CHANNELS 3 Xrotation Yrotation Zrotation
											End Site
											{
												OFFSET -1.135597 3.090645 0.454245
											}
										}
									}
								}
								JOINT LeftHandMiddle1
								{
									OFFSET 12.129349 0.000000 0.000000
									CHANNELS 3 Xrotation Yrotation Zrotation
									JOINT LeftHandMiddle2
									{
										OFFSET 3.410492 0.000000 0.000000
										CHANNELS 3 Xrotation Yrotation Zrotation
										JOINT LeftHandMiddle3
										{
											OFFSET 3.312172 0.000000 0.000000
											CHANNELS 3 Xrotation Yrotation Zrotation
											End Site
											{
												OFFSET -1.150200 3.071854 0.459684
											}
										}
									}
								}
								JOINT LeftHandRing1
								{
									OFFSET 12.519501 0.089500 -2.972870
									CHANNELS 3 Xrotation Yrotation Zrotation
									JOINT LeftHandRing2
									{
										OFFSET 3.053307 0.000000 0.000000
										CHANNELS 3 Xrotation Yrotation Zrotation
										JOINT LeftHandRing3
										{
											OFFSET 3.295807 0.000000 0.000000
											CHANNELS 3 Xrotation Yrotation Zrotation
											End Site
											{
												OFFSET -1.281006 3.004524 0.440718
											}
										}
									}
								}
								JOINT LeftHandPinky1
								{
									OFFSET 11.743073 -0.777466 -5.760851
									CHANNELS 3 Xrotation Yrotation Zrotation
									JOINT LeftHandPinky2
									{
										OFFSET 2.861649 0.000000 0.000000
										CHANNELS 3 Xrotation Yrotation Zrotation
										JOINT LeftHandPinky3
										{
											OFFSET 2.863380 0.000000 0.000000
											CHANNELS 3 Xrotation Yrotation Zrotation
											End Site
											{
												OFFSET -0.843597 2.702866 0.426379
											}
										}
									}
								}
							}
							JOINT LeftWristTwist
							{
								OFFSET 10.542084 0.000000 0.000000
								CHANNELS 3 Xrotation Yrotation Zrotation
								End Site
								{
									OFFSET 0.000000 15.813126 0.000000
								}
							}
						}
						JOINT LeftUpArmTwist
						{
							OFFSET 10.640240 0.000000 -0.000003
							CHANNELS 3 Xrotation Yrotation Zrotation
							End Site
							{
								OFFSET 0.000000 10.640274 0.000000
							}
						}
						JOINT LeftUpArmCounterTwist
						{
							OFFSET 0.000000 0.000000 0.000000
							CHANNELS 3 Xrotation Yrotation Zrotation
							End Site
							{
								OFFSET 0.000000 10.640274 0.000000
							}
						}
					}
				}
				JOINT RightShoulder
				{
					OFFSET -4.215800 16.554398 -4.064700
					CHANNELS 3 Xrotation Yrotation Zrotation
					JOINT RightArm
					{
						OFFSET -8.527100 -0.250801 -1.709300
						CHANNELS 3 Xrotation Yrotation Zrotation
						JOINT RightForeArm
						{
							OFFSET -21.280577 0.000000 0.000000
							CHANNELS 3 Xrotation Yrotation Zrotation
							JOINT RightHand
							{
								OFFSET -21.084167 0.000000 0.000000
								CHANNELS 3 Xrotation Yrotation Zrotation
								JOINT RightHandThumb1
								{
									OFFSET -4.156902 -1.974739 2.603903
									CHANNELS 3 Xrotation Yrotation Zrotation
									JOINT RightHandThumb2
									{
										OFFSET -3.101337 -1.790558 1.790558
										CHANNELS 3 Xrotation Yrotation Zrotation
										JOINT RightHandThumb3
										{
											OFFSET -3.058640 -1.765907 1.765906
											CHANNELS 3 Xrotation Yrotation Zrotation
											End Site
											{
												OFFSET 0.508484 3.914536 0.099958
											}
										}
									}
								}
								JOINT RightHandIndex1
								{
									OFFSET -11.891159 -0.685638 3.728940
									CHANNELS 3 Xrotation Yrotation Zrotation
									JOINT RightHandIndex2
									{
										OFFSET -3.283112 0.000000 0.000000
										CHANNELS 3 Xrotation Yrotation Zrotation
										JOINT RightHandIndex3
										{
											OFFSET -3.323853 0.000000 0.000000
											CHANNELS 3 Xrotation Yrotation Zrotation
											End Site
											{
												OFFSET 1.135597 3.090645 0.454245
											}
										}
									}
								}
								JOINT RightHandMiddle1
								{
									OFFSET -12.129349 0.000000 0.000000
									CHANNELS 3 Xrotation Yrotation Zrotation
									JOINT RightHandMiddle2
									{
										OFFSET -3.410492 0.000000 0.000000
										CHANNELS 3 Xrotation Yrotation Zrotation
										JOINT RightHandMiddle3
										{
											OFFSET -3.312172 0.000000 0.000000
											CHANNELS 3 Xrotation Yrotation Zrotation
											End Site
											{
												OFFSET 1.150200 3.071854 0.459684
											}
										}
									}
								}
								JOINT RightHandRing1
								{
									OFFSET -12.519501 0.089500 -2.972870
									CHANNELS 3 Xrotation Yrotation Zrotation
									JOINT RightHandRing2
									{
										OFFSET -3.053307 0.000000 0.000000
										CHANNELS 3 Xrotation Yrotation Zrotation
										JOINT RightHandRing3
										{
											OFFSET -3.295807 0.000000 0.000000
											CHANNELS 3 Xrotation Yrotation Zrotation
											End Site
											{
												OFFSET 1.281006 3.004524 0.440718
											}
										}
									}
								}
								JOINT RightHandPinky1
								{
									OFFSET -11.743073 -0.777466 -5.760851
									CHANNELS 3 Xrotation Yrotation Zrotation
									JOINT RightHandPinky2
									{
										OFFSET -2.861649 0.000000 0.000000
										CHANNELS 3 Xrotation Yrotation Zrotation
										JOINT RightHandPinky3
										{
											OFFSET -2.863380 0.000000 0.000000
											CHANNELS 3 Xrotation Yrotation Zrotation
											End Site
											{
												OFFSET 0.843597 2.702866 0.426379
											}
										}
									}
								}
							}
							JOINT RightWristTwist
							{
								OFFSET -10.542084 0.000000 0.000000
								CHANNELS 3 Xrotation Yrotation Zrotation
								End Site
								{
									OFFSET 0.000000 15.813126 0.000000
								}
							}
						}
						JOINT RightUpArmTwist
						{
							OFFSET -10.639141 -0.110298 -0.000072
							CHANNELS 3 Xrotation Yrotation Zrotation
							End Site
							{
								OFFSET 0.000000 10.640099 0.000000
							}
						}
						JOINT RightUpArmCounterTwist
						{
							OFFSET 0.000000 0.000000 0.000000
							CHANNELS 3 Xrotation Yrotation Zrotation
							End Site
							{
								OFFSET 0.000000 10.640091 0.000000
							}
						}
					}
				}
				JOINT Left_Breast
				{
					OFFSET 2.562200 12.196404 5.128100
					CHANNELS 3 Xrotation Yrotation Zrotation
					End Site
					{
						OFFSET 0.000000 16.796066 0.000000
					}
				}
				JOINT Right_Breast
				{
					OFFSET -2.562200 12.196404 5.128100
					CHANNELS 3 Xrotation Yrotation Zrotation
					End Site
					{
						OFFSET 0.000000 16.796066 0.000000
					}
				}
			}
		}
		JOINT Belly
		{
			OFFSET 0.000000 -0.538597 3.357800
			CHANNELS 3 Xrotation Yrotation Zrotation
			End Site
			{
				OFFSET 0.000000 5.856125 0.000000
			}
		}
	}
	JOINT SkirtA
	{
		OFFSET 11.243100 1.931297 -10.868500
		CHANNELS 3 Xrotation Yrotation Zrotation
		JOINT SkirtA1
		{
			OFFSET 2.029201 -7.806297 -3.695200
			CHANNELS 3 Xrotation Yrotation Zrotation
			End Site
			{
				OFFSET 0.000000 8.871895 0.000000
			}
		}
	}
	JOINT SkirtC
	{
		OFFSET -11.243100 1.931297 -10.868500
		CHANNELS 3 Xrotation Yrotation Zrotation
		JOINT SkirtC1
		{
			OFFSET -2.029201 -7.806297 -3.695200
			CHANNELS 3 Xrotation Yrotation Zrotation
			End Site
			{
				OFFSET 0.000000 8.871895 0.000000
			}
		}
	}
	JOINT SkirtB
	{
		OFFSET 0.000000 4.335800 -15.692000
		CHANNELS 3 Xrotation Yrotation Zrotation
		JOINT SkirtB1
		{
			OFFSET 0.000000 -9.653404 -3.351201
			CHANNELS 3 Xrotation Yrotation Zrotation
			End Site
			{
				OFFSET 0.000000 10.218544 0.000000
			}
		}
	}
	JOINT Girl01FacialAnim_Joint
	{
		OFFSET 1.000000 -84.230202 -1.550900
		CHANNELS 3 Xrotation Yrotation Zrotation
		End Site
		{
			OFFSET 0.000000 23.332932 0.000000
		}
	}
}
MOTION
Frames: 4
Frame Time: 0.016667
0.083663 83.313705 -0.079051 -2.259993 -0.269207 -0.852842 0.000000 -0.000000 0.000000 -22.770582 5.868184 -0.125218 60.673492 19.467322 1.048537 5.938646 0.050286 6.427307 0.000001 0.000000 -0.000001 -12.123002 -2.450299 5.792181 22.777364 -6.542369 -0.336633 -10.518031 0.379325 -4.011143 0.000000 -0.000000 -0.000000 1.797126 -1.330787 0.819928 3.579706 -2.533196 0.673625 3.579706 -2.533199 0.673625 -2.439475 1.360552 -0.177269 -0.112016 5.844294 -0.079477 0.000000 -0.000000 0.000000 0.000000 -0.000000 0.000000 0.000000 -0.000000 0.000000 0.000000 -0.000000 0.000000 0.000000 -0.000000 0.000000 0.000000 -0.000000 0.000000 0.000000 -0.000000 0.000000 0.000000 -0.000000 0.000000 0.000000 -0.000000 0.000000 0.442701 -8.235237 -13.151903 -0.624801 -8.808423 -59.472253 19.132403 -19.316373 6.827543 -5.405348 -8.531734 1.793586 25.111250 -2.687261 20.499097 9.304973 24.441163 -0.847864 -0.000000 0.000002 0.000004 0.599991 6.911496 -23.883864 2.733477 1.542658 -36.765993 0.000006 0.000003 0.000002 0.976158 7.422049 -32.221708 5.809210 1.256766 -45.781149 0.000000 0.000002 0.000000 -1.227805 6.340745 -44.477861 7.491190 2.055269 -50.574443 -0.000003 0.000002 -0.000003 -5.698668 1.174839 -43.952739 10.001154 3.459255 -50.341964 0.000003 -0.000000 -0.000003 -0.000000 -0.000000 -0.000000 0.000001 -0.000001 -0.000002 0.000001 -0.000001 -0.000002 0.662848 2.643784 20.148730 -3.947857 -2.327092 62.260330 16.631077 11.939496 -3.786015 -4.421755 12.103407 -12.551338 3.824830 -12.345961 -1.042563 4.523886 -9.504799 0.488639 0.000000 -0.000002 0.000002 3.545370 -9.668646 69.326707 8.886355 -3.241694 112.372567 0.000001 0.000001 0.000003 5.660012 -9.815676 93.151718 8.809072 -2.682467 83.366291 0.000001 0.000000 -0.000002 4.831738 -12.380555 97.852521 10.912803 -3.225645 91.663502 -0.000000 0.000001 0.000005 0.269987 -10.740403 93.149778 10.737845 -3.968361 60.274323 0.000003 0.000001 -0.000003 0.000001 -0.000001 0.000001 -0.000000 0.000000 0.000000 -0.000000 0.000000 0.000000 -0.000001 0.000000 -0.000000 -0.000001 0.000000 -0.000000 -0.000000 0.000000 0.000000 0.000000 -0.000000 0.000000 0.000000 -0.000000 0.000000 0.000000 -0.000000 0.000000 0.000000 -0.000000 0.000000 0.000000 -0.000000 0.000000 0.000000 -0.000000 0.000000 0.000000 -0.000000 0.000000 
0.089524 83.509857 1.366559 -1.710142 -0.635568 -0.605390 0.000000 -0.000000 0.000000 -24.596978 5.482629 -0.544423 56.664673 20.064995 0.790379 4.477307 0.078868 6.218427 -0.000003 0.000000 -0.000000 -11.207477 -2.632643 5.409955 22.125746 -5.830495 -0.285747 -10.741575 0.290642 -3.813349 -0.000000 -0.000000 -0.000000 1.755981 -1.189299 0.748036 3.499180 -2.307244 0.585557 3.499179 -2.307242 0.585556 -2.612419 1.430623 -0.247577 -0.487290 6.028377 -0.126740 -0.000000 -0.000000 -0.000000 -0.000000 -0.000000 -0.000000 -0.000000 -0.000000 -0.000000 -0.000000 -0.000000 -0.000000 -0.000000 -0.000000 -0.000000 -0.000000 -0.000000 -0.000000 -0.000000 -0.000000 -0.000000 -0.000000 -0.000000 -0.000000 -0.000000 -0.000000 -0.000000 0.454669 -7.470877 -13.168884 0.654390 -8.470603 -60.205966 20.427836 -18.521873 7.029645 -5.433722 -8.505577 0.903313 25.111250 -2.687265 20.499104 9.304975 24.441164 -0.847876 -0.000001 0.000003 0.000001 0.599994 6.911496 -23.883853 2.733476 1.542659 -36.765996 0.000004 0.000001 -0.000002 0.976159 7.422046 -32.221704 5.809211 1.256766 -45.781149 0.000003 0.000002 0.000000 -1.227805 6.340743 -44.477861 7.491182 2.055268 -50.574446 -0.000001 -0.000001 -0.000005 -5.698667 1.174841 -43.952739 10.001156 3.459254 -50.341957 0.000001 0.000003 0.000001 0.000001 0.000000 -0.000000 -0.000001 0.000001 0.000000 -0.000001 0.000001 0.000000 0.612388 3.164850 19.977240 -3.874862 -2.174092 62.247755 16.807781 12.161556 -3.873186 -4.359206 12.263647 -12.987775 3.824833 -12.345956 -1.042564 4.523886 -9.504799 0.488637 0.000001 -0.000001 -0.000003 3.545370 -9.668644 69.326707 8.886354 -3.241692 112.372574 0.000002 0.000000 -0.000001 5.660012 -9.815673 93.151718 8.809071 -2.682468 83.366291 0.000001 -0.000001 0.000000 4.831741 -12.380559 97.852521 10.912804 -3.225644 91.663502 -0.000001 0.000003 0.000002 0.269988 -10.740407 93.149785 10.737845 -3.968359 60.274323 0.000000 0.000000 -0.000002 -0.000000 -0.000001 0.000000 -0.000000 -0.000000 -0.000000 -0.000000 -0.000000 -0.000000 -0.000000 -0.000000 -0.000000 -0.000000 -0.000000 -0.000000 -0.000000 0.000000 -0.000000 0.000000 -0.000000 0.000000 0.000000 -0.000000 0.000000 0.000000 -0.000000 0.000000 0.000000 -0.000000 0.000000 0.000000 -0.000000 0.000000 0.000000 -0.000000 0.000000 0.000000 -0.000000 0.000000 
0.089970 83.664665 2.800816 -1.173497 -0.904325 -0.381964 0.000000 -0.000000 0.000000 -26.398215 5.160239 -0.898044 52.539984 20.908753 0.578715 3.288925 0.049278 6.192446 0.000002 0.000002 -0.000002 -10.376622 -2.641313 5.157342 21.613172 -5.489390 -0.273072 -11.106013 0.246939 -3.792103 -0.000000 -0.000001 -0.000000 1.720160 -1.055165 0.667525 3.429611 -2.089985 0.502384 3.429609 -2.089985 0.502384 -2.884452 1.504298 -0.301506 -0.874098 6.243009 -0.145089 0.000000 -0.000000 -0.000000 0.000000 -0.000000 -0.000000 0.000000 -0.000000 -0.000000 0.000000 -0.000000 -0.000000 0.000000 -0.000000 -0.000000 0.000000 -0.000000 -0.000000 0.000000 -0.000000 -0.000000 0.000000 -0.000000 -0.000000 0.000000 -0.000000 -0.000000 0.465242 -6.814611 -13.199837 2.004801 -7.912366 -60.971726 21.519956 -17.949081 7.215309 -5.434447 -8.398259 0.544520 25.111245 -2.687261 20.499100 9.304972 24.441163 -0.847867 -0.000000 0.000002 0.000002 0.599995 6.911497 -23.883858 2.733471 1.542661 -36.765996 0.000003 -0.000002 -0.000003 0.976163 7.422046 -32.221704 5.809206 1.256768 -45.781146 0.000002 -0.000001 0.000003 -1.227802 6.340742 -44.477861 7.491184 2.055269 -50.574443 -0.000001 -0.000004 -0.000002 -5.698661 1.174837 -43.952739 10.001151 3.459250 -50.341957 -0.000002 -0.000004 0.000003 -0.000004 -0.000002 0.000001 -0.000002 -0.000000 -0.000000 -0.000002 -0.000000 -0.000000 0.568606 3.632619 19.811353 -4.195722 -1.838514 62.253985 16.903209 11.565497 -3.698453 -4.232667 12.781658 -13.807309 3.824831 -12.345956 -1.042564 4.523887 -9.504797 0.488635 -0.000000 -0.000001 0.000004 3.545370 -9.668643 69.326714 8.886354 -3.241691 112.372567 0.000001 0.000002 0.000003 5.660011 -9.815671 93.151718 8.809071 -2.682468 83.366291 0.000001 0.000000 0.000002 4.831737 -12.380553 97.852521 10.912801 -3.225645 91.663495 -0.000001 0.000001 0.000002 0.269984 -10.740402 93.149778 10.737840 -3.968360 60.274329 0.000004 0.000001 0.000002 0.000001 0.000001 -0.000000 0.000000 -0.000000 -0.000000 0.000000 -0.000000 -0.000000 -0.000001 0.000000 0.000000 -0.000001 0.000000 0.000000 -0.000000 0.000000 0.000000 0.000000 -0.000000 0.000000 0.000000 -0.000000 0.000000 0.000000 -0.000000 0.000000 0.000000 -0.000000 0.000000 0.000000 -0.000000 0.000000 0.000000 -0.000000 0.000000 0.000000 -0.000000 0.000000 
0.091281 83.776489 4.233396 -0.656841 -1.101495 -0.170274 0.000000 0.000000 0.000000 -27.774519 5.103747 -1.272465 47.700375 21.797844 0.463788 2.363194 -0.021487 7.016792 0.000001 -0.000000 0.000001 -9.582874 -2.492258 4.976003 21.196239 -5.469266 -0.254046 -11.586825 0.249994 -3.958594 -0.000000 0.000000 0.000000 1.687669 -0.926888 0.573367 3.367074 -1.875273 0.425677 3.367076 -1.875276 0.425677 -3.208036 1.587581 -0.346729 -1.269627 6.495311 -0.154898 0.000000 -0.000000 0.000000 0.000000 -0.000000 0.000000 0.000000 -0.000000 0.000000 0.000000 -0.000000 0.000000 0.000000 -0.000000 0.000000 0.000000 -0.000000 0.000000 0.000000 -0.000000 0.000000 0.000000 -0.000000 0.000000 0.000000 -0.000000 0.000000 0.474699 -6.235078 -13.243597 3.418573 -7.247819 -61.761801 22.479457 -17.502542 7.388065 -5.421045 -8.252954 0.460569 25.111250 -2.687263 20.499104 9.304970 24.441163 -0.847863 0.000001 0.000002 -0.000003 0.599992 6.911496 -23.883862 2.733478 1.542662 -36.765996 -0.000001 -0.000003 0.000004 0.976156 7.422047 -32.221708 5.809205 1.256767 -45.781149 0.000001 -0.000003 0.000001 -1.227807 6.340742 -44.477864 7.491187 2.055270 -50.574446 -0.000003 0.000000 0.000001 -5.698668 1.174838 -43.952735 10.001153 3.459253 -50.341957 0.000000 -0.000000 0.000002 -0.000001 0.000000 0.000000 -0.000000 -0.000001 -0.000002 -0.000000 -0.000001 -0.000002 0.529727 4.063019 19.648231 -4.740132 -1.403325 62.276497 16.928798 10.477835 -3.360526 -4.051102 13.541999 -14.887383 3.824829 -12.345955 -1.042563 4.523887 -9.504798 0.488635 0.000002 -0.000001 -0.000002 3.545370 -9.668644 69.326707 8.886354 -3.241692 112.372567 0.000003 0.000001 0.000003 5.660011 -9.815675 93.151718 8.809072 -2.682468 83.366291 -0.000000 0.000001 -0.000001 4.831736 -12.380556 97.852521 10.912802 -3.225644 91.663495 -0.000000 -0.000001 0.000003 0.269986 -10.740407 93.149785 10.737843 -3.968358 60.274323 -0.000001 -0.000001 -0.000000 -0.000000 -0.000000 0.000000 0.000000 -0.000000 0.000001 0.000000 -0.000000 0.000001 0.000001 0.000000 -0.000000 0.000001 0.000000 -0.000000 -0.000000 0.000000 -0.000000 0.000000 0.000000 0.000000 0.000000 0.000000 0.000000 0.000000 0.000000 0.000000 0.000000 0.000000 0.000000 0.000000 0.000000 0.000000 0.000000 0.000000 0.000000 0.000000 0.000000 0.000000 
